<svg xmlns="http://www.w3.org/2000/svg" xmlns:xlink="http://www.w3.org/1999/xlink" width="500" zoomAndPan="magnify" viewBox="0 0 375 374.999991" height="500" preserveAspectRatio="xMidYMid meet" version="1.0"><defs><clipPath id="5c2ca087db"><path d="M 120 307 L 196 307 L 196 326.347656 L 120 326.347656 Z M 120 307 " clip-rule="nonzero"/></clipPath><clipPath id="7e3bb19775"><path d="M 76 319 L 240 319 L 240 326.347656 L 76 326.347656 Z M 76 319 " clip-rule="nonzero"/></clipPath><clipPath id="71ad1206bd"><path d="M 47.75 74.347656 L 136 74.347656 L 136 150 L 47.75 150 Z M 47.75 74.347656 " clip-rule="nonzero"/></clipPath><clipPath id="0e04139db3"><path d="M 48 74.347656 L 136 74.347656 L 136 151 L 48 151 Z M 48 74.347656 " clip-rule="nonzero"/></clipPath><clipPath id="8ee3c676b6"><path d="M 227 156 L 337.25 156 L 337.25 220 L 227 220 Z M 227 156 " clip-rule="nonzero"/></clipPath></defs><path fill="#d6e0eb" d="M 176.765625 285.355469 L 176.765625 310.542969 C 176.765625 312.429688 175.507812 313.691406 173.621094 313.691406 L 142.152344 313.691406 C 140.265625 313.691406 139.003906 312.429688 139.003906 310.542969 L 139.003906 285.355469 C 139.003906 283.464844 140.265625 282.207031 142.152344 282.207031 L 173.621094 282.207031 C 175.507812 282.207031 176.765625 283.464844 176.765625 285.355469 Z M 176.765625 285.355469 " fill-opacity="1" fill-rule="nonzero"/><path fill="#a9b9d4" d="M 173.621094 282.207031 L 167.324219 282.207031 C 168.898438 282.207031 170.472656 283.78125 170.472656 285.355469 L 170.472656 310.542969 C 170.472656 312.117188 168.898438 313.691406 167.324219 313.691406 L 173.621094 313.691406 C 175.191406 313.691406 176.765625 312.117188 176.765625 310.542969 L 176.765625 285.355469 C 176.765625 283.78125 175.191406 282.207031 173.621094 282.207031 Z M 173.621094 282.207031 " fill-opacity="1" fill-rule="nonzero"/><g clip-path="url(#5c2ca087db)"><path fill="#d6e0eb" d="M 195.648438 323.136719 C 195.648438 325.023438 194.386719 326.285156 192.5 326.285156 L 123.273438 326.285156 C 121.382812 326.285156 120.125 325.023438 120.125 323.136719 C 120.125 314.320312 127.046875 307.394531 135.859375 307.394531 L 179.914062 307.394531 C 188.722656 307.394531 195.648438 314.320312 195.648438 323.136719 Z M 195.648438 323.136719 " fill-opacity="1" fill-rule="nonzero"/></g><path fill="#a9b9d4" d="M 179.914062 307.394531 L 135.859375 307.394531 C 127.046875 307.394531 120.125 314.320312 120.125 323.136719 C 120.125 323.765625 120.441406 324.394531 120.753906 325.023438 C 122.640625 318.414062 128.621094 313.691406 135.859375 313.691406 L 179.914062 313.691406 C 187.152344 313.691406 193.128906 318.414062 195.015625 325.023438 C 195.332031 324.394531 195.648438 323.765625 195.648438 323.136719 C 195.648438 314.320312 188.722656 307.394531 179.914062 307.394531 Z M 179.914062 307.394531 " fill-opacity="1" fill-rule="nonzero"/><path fill="#d6e0eb" d="M 239.699219 279.058594 C 239.699219 284.410156 235.609375 288.503906 230.261719 288.503906 L 85.511719 288.503906 C 80.160156 288.503906 76.070312 284.410156 76.070312 279.058594 L 76.070312 257.019531 L 239.699219 257.019531 Z M 239.699219 279.058594 " fill-opacity="1" fill-rule="nonzero"/><path fill="#a9b9d4" d="M 233.40625 257.019531 L 233.40625 272.761719 C 233.40625 278.113281 229.316406 282.207031 223.96875 282.207031 L 79.21875 282.207031 C 78.273438 282.207031 77.328125 282.207031 76.386719 281.890625 C 77.644531 285.667969 81.105469 288.503906 85.511719 288.503906 L 230.261719 288.503906 C 235.609375 288.503906 239.699219 284.410156 239.699219 279.058594 L 239.699219 257.019531 Z M 233.40625 257.019531 " fill-opacity="1" fill-rule="nonzero"/><path fill="#234470" d="M 236.554688 156.269531 L 85.511719 156.269531 C 80.160156 156.269531 76.070312 160.363281 76.070312 165.714844 L 76.070312 263.316406 L 239.699219 263.316406 L 239.699219 159.417969 C 239.699219 157.53125 238.441406 156.269531 236.554688 156.269531 Z M 236.554688 156.269531 " fill-opacity="1" fill-rule="nonzero"/><path fill="#234470" d="M 201.941406 275.910156 L 195.648438 275.910156 L 195.648438 269.613281 L 201.941406 269.613281 Z M 214.527344 269.613281 L 208.234375 269.613281 L 208.234375 275.910156 L 214.527344 275.910156 Z M 227.113281 269.613281 L 220.820312 269.613281 L 220.820312 275.910156 L 227.113281 275.910156 Z M 227.113281 269.613281 " fill-opacity="1" fill-rule="nonzero"/><path fill="#ffffff" d="M 227.113281 172.011719 L 227.113281 263.316406 L 88.65625 263.316406 L 88.65625 172.011719 C 88.65625 170.125 89.917969 168.863281 91.804688 168.863281 L 223.96875 168.863281 C 225.855469 168.863281 227.113281 170.125 227.113281 172.011719 Z M 227.113281 172.011719 " fill-opacity="1" fill-rule="nonzero"/><g clip-path="url(#7e3bb19775)"><path fill="#234470" d="M 76.070312 319.988281 L 239.699219 319.988281 L 239.699219 326.285156 L 76.070312 326.285156 Z M 76.070312 319.988281 " fill-opacity="1" fill-rule="nonzero"/></g><path fill="#febf4f" d="M 201.941406 115.34375 L 201.941406 247.574219 C 201.941406 249.464844 200.679688 250.722656 198.792969 250.722656 L 116.976562 250.722656 C 115.089844 250.722656 113.832031 249.464844 113.832031 247.574219 L 113.832031 115.34375 C 113.832031 113.453125 115.089844 112.195312 116.976562 112.195312 L 198.792969 112.195312 C 200.679688 112.195312 201.941406 113.453125 201.941406 115.34375 Z M 201.941406 115.34375 " fill-opacity="1" fill-rule="nonzero"/><path fill="#f2a241" d="M 198.792969 112.195312 L 195.648438 112.195312 L 195.648438 183.976562 C 195.648438 217.035156 168.269531 244.425781 135.230469 244.425781 L 113.832031 244.425781 L 113.832031 247.574219 C 113.832031 249.148438 115.40625 250.722656 116.976562 250.722656 L 198.792969 250.722656 C 200.367188 250.722656 201.941406 249.148438 201.941406 247.574219 L 201.941406 115.34375 C 201.941406 113.769531 200.367188 112.195312 198.792969 112.195312 Z M 198.792969 112.195312 " fill-opacity="1" fill-rule="nonzero"/><path fill="#000000" d="M 157.886719 212.941406 C 140.578125 212.941406 126.417969 198.773438 126.417969 181.457031 C 126.417969 164.140625 140.578125 149.972656 157.886719 149.972656 C 175.191406 149.972656 189.351562 164.140625 189.351562 181.457031 C 189.351562 198.773438 175.191406 212.941406 157.886719 212.941406 Z M 157.886719 156.269531 C 144.039062 156.269531 132.710938 167.605469 132.710938 181.457031 C 132.710938 195.3125 144.039062 206.644531 157.886719 206.644531 C 171.730469 206.644531 183.058594 195.3125 183.058594 181.457031 C 183.058594 167.605469 171.730469 156.269531 157.886719 156.269531 Z M 157.886719 156.269531 " fill-opacity="1" fill-rule="nonzero"/><path fill="#000000" d="M 157.886719 212.941406 C 140.578125 212.941406 126.417969 198.773438 126.417969 181.457031 C 126.417969 164.140625 140.578125 149.972656 157.886719 149.972656 C 175.191406 149.972656 189.351562 164.140625 189.351562 181.457031 C 189.351562 198.773438 175.191406 212.941406 157.886719 212.941406 Z M 157.886719 156.269531 C 144.039062 156.269531 132.710938 167.605469 132.710938 181.457031 C 132.710938 195.3125 144.039062 206.644531 157.886719 206.644531 C 171.730469 206.644531 183.058594 195.3125 183.058594 181.457031 C 183.058594 167.605469 171.730469 156.269531 157.886719 156.269531 Z M 157.886719 156.269531 " fill-opacity="1" fill-rule="nonzero"/><path fill="#ffffff" d="M 189.351562 181.457031 C 189.351562 198.773438 175.191406 212.941406 157.886719 212.941406 C 140.578125 212.941406 126.417969 198.773438 126.417969 181.457031 C 126.417969 164.140625 140.578125 149.972656 157.886719 149.972656 C 175.191406 149.972656 189.351562 164.140625 189.351562 181.457031 Z M 189.351562 181.457031 " fill-opacity="1" fill-rule="nonzero"/><path fill="#234470" d="M 179.914062 202.238281 L 179.914062 202.550781 C 179.914062 203.496094 179.597656 204.441406 178.96875 204.757812 C 172.992188 210.109375 165.753906 212.941406 157.886719 212.941406 C 150.019531 212.941406 142.78125 210.109375 136.804688 205.070312 C 136.171875 204.441406 135.859375 203.496094 135.859375 202.550781 C 136.488281 190.589844 146.242188 181.457031 157.886719 181.457031 C 169.527344 181.457031 178.96875 190.589844 179.914062 202.238281 C 179.914062 201.921875 179.914062 201.921875 179.914062 202.238281 Z M 179.914062 202.238281 " fill-opacity="1" fill-rule="nonzero"/><path fill="#234470" d="M 170.472656 175.160156 C 170.472656 182.085938 164.808594 187.753906 157.886719 187.753906 C 150.964844 187.753906 145.300781 182.085938 145.300781 175.160156 C 145.300781 168.234375 150.964844 162.566406 157.886719 162.566406 C 164.808594 162.566406 170.472656 168.234375 170.472656 175.160156 Z M 170.472656 175.160156 " fill-opacity="1" fill-rule="nonzero"/><path fill="#ffffff" d="M 186.207031 225.535156 L 129.566406 225.535156 L 129.566406 219.238281 L 186.207031 219.238281 Z M 186.207031 231.832031 L 129.566406 231.832031 L 129.566406 238.128906 L 186.207031 238.128906 Z M 186.207031 124.789062 L 139.003906 124.789062 L 139.003906 131.082031 L 186.207031 131.082031 Z M 186.207031 137.378906 L 129.566406 137.378906 L 129.566406 143.675781 L 186.207031 143.675781 Z M 186.207031 137.378906 " fill-opacity="1" fill-rule="nonzero"/><g clip-path="url(#71ad1206bd)"><path fill="#e62242" d="M 135.859375 83.859375 L 135.859375 122.898438 C 135.859375 127.304688 132.082031 131.082031 127.675781 131.082031 L 120.125 131.082031 L 120.125 146.824219 C 120.125 148.085938 119.179688 149.34375 117.921875 149.972656 C 117.609375 149.972656 117.292969 149.972656 116.976562 149.972656 C 116.035156 149.972656 115.089844 149.34375 114.460938 148.714844 L 102.816406 131.082031 L 57.191406 131.082031 C 51.839844 131.082031 47.75 126.992188 47.75 121.640625 L 47.75 83.859375 C 47.75 78.507812 51.839844 74.414062 57.191406 74.414062 L 126.417969 74.414062 C 131.769531 74.414062 135.859375 78.507812 135.859375 83.859375 Z M 135.859375 83.859375 " fill-opacity="1" fill-rule="nonzero"/></g><g clip-path="url(#0e04139db3)"><path fill="#ca1600" d="M 96.523438 124.789062 L 50.898438 124.789062 C 49.953125 124.789062 49.007812 124.789062 48.066406 124.472656 C 49.324219 128.25 53.097656 131.082031 57.191406 131.082031 L 100.617188 131.082031 Z M 129.25 74.726562 C 129.566406 75.671875 129.566406 76.617188 129.566406 77.5625 L 129.566406 116.601562 C 129.566406 121.007812 125.789062 124.789062 121.382812 124.789062 L 113.832031 124.789062 L 113.832031 140.527344 C 113.832031 141.789062 112.886719 143.046875 111.628906 143.675781 C 111.3125 143.675781 111.3125 143.675781 111 143.675781 L 114.144531 148.714844 C 114.777344 149.660156 115.71875 150.289062 116.664062 150.289062 C 116.976562 150.289062 117.292969 150.289062 117.609375 150.289062 C 118.867188 149.972656 119.808594 148.714844 119.808594 147.140625 L 119.808594 131.398438 L 127.363281 131.398438 C 131.769531 131.398438 135.542969 127.621094 135.542969 123.214844 L 135.542969 83.859375 C 135.859375 79.449219 133.027344 75.988281 129.25 74.726562 Z M 129.25 74.726562 " fill-opacity="1" fill-rule="nonzero"/></g><path fill="#ffffff" d="M 73.867188 114.398438 L 64.429688 104.953125 C 63.167969 103.691406 63.167969 101.804688 64.429688 100.542969 L 73.867188 91.097656 L 78.273438 95.507812 L 71.035156 102.75 L 78.273438 109.988281 Z M 119.179688 104.953125 C 120.441406 103.691406 120.441406 101.804688 119.179688 100.542969 L 109.742188 91.097656 L 105.335938 95.507812 L 112.574219 102.75 L 105.335938 109.988281 L 109.742188 114.398438 Z M 103.449219 95.507812 L 99.042969 91.097656 L 80.160156 109.988281 L 84.566406 114.398438 Z M 103.449219 95.507812 " fill-opacity="1" fill-rule="nonzero"/><path fill="#e62242" d="M 327.808594 140.527344 L 327.808594 146.824219 C 327.808594 148.714844 326.550781 149.972656 324.664062 149.972656 L 223.96875 149.972656 C 222.078125 149.972656 220.820312 148.714844 220.820312 146.824219 L 220.820312 140.527344 C 220.820312 135.175781 224.910156 131.082031 230.261719 131.082031 L 318.371094 131.082031 C 323.71875 131.082031 327.808594 135.175781 327.808594 140.527344 Z M 327.808594 140.527344 " fill-opacity="1" fill-rule="nonzero"/><path fill="#e62242" d="M 327.808594 143.675781 L 327.808594 162.566406 L 239.699219 162.566406 L 239.699219 209.480469 C 239.699219 214.515625 235.925781 218.925781 231.203125 219.238281 C 230.890625 219.238281 230.574219 219.238281 230.261719 219.238281 C 227.742188 219.238281 225.226562 218.292969 223.652344 216.40625 C 221.765625 214.832031 220.820312 212.3125 220.820312 209.792969 L 220.820312 143.675781 Z M 327.808594 143.675781 " fill-opacity="1" fill-rule="nonzero"/><path fill="#0071bc" d="M 231.203125 212.941406 C 230.890625 212.941406 230.574219 212.941406 230.261719 212.941406 C 227.742188 212.941406 225.226562 211.996094 223.652344 210.109375 C 221.765625 208.535156 220.820312 206.015625 220.820312 203.496094 L 220.820312 209.792969 C 220.820312 212.3125 221.765625 214.832031 223.652344 216.40625 C 225.539062 218.292969 227.742188 219.238281 230.261719 219.238281 C 230.574219 219.238281 230.890625 219.238281 231.203125 219.238281 C 235.925781 218.925781 239.699219 214.515625 239.699219 209.480469 L 239.699219 203.183594 C 239.699219 208.21875 235.925781 212.628906 231.203125 212.941406 Z M 231.203125 212.941406 " fill-opacity="1" fill-rule="nonzero"/><g clip-path="url(#8ee3c676b6)"><path fill="#03a9f4" d="M 337.25 159.417969 L 337.25 203.496094 C 337.25 212.3125 330.328125 219.238281 321.515625 219.238281 L 230.261719 219.238281 C 228.371094 219.238281 227.113281 217.980469 227.113281 216.089844 C 227.113281 214.203125 228.371094 212.941406 230.261719 212.941406 C 232.148438 212.941406 233.40625 211.367188 233.40625 209.480469 L 233.40625 159.417969 C 233.40625 157.53125 234.667969 156.269531 236.554688 156.269531 L 334.101562 156.269531 C 335.992188 156.269531 337.25 157.53125 337.25 159.417969 Z M 337.25 159.417969 " fill-opacity="1" fill-rule="nonzero"/><path fill="#0071bc" d="M 334.101562 156.269531 L 330.957031 156.269531 C 330.957031 187.441406 296.027344 212.941406 264.875 212.941406 L 230.261719 212.941406 C 228.6875 212.941406 227.113281 214.515625 227.113281 216.089844 C 227.113281 217.664062 228.6875 219.238281 230.261719 219.238281 L 321.515625 219.238281 C 330.328125 219.238281 337.25 212.3125 337.25 203.496094 L 337.25 159.417969 C 337.25 157.84375 335.992188 156.269531 334.101562 156.269531 Z M 334.101562 156.269531 " fill-opacity="1" fill-rule="nonzero"/></g><path fill="#ffffff" d="M 290.050781 200.347656 L 324.664062 200.347656 L 324.664062 206.644531 L 290.050781 206.644531 Z M 290.050781 200.347656 " fill-opacity="1" fill-rule="nonzero"/><path fill="#234470" d="M 157.886719 212.941406 C 140.578125 212.941406 126.417969 198.773438 126.417969 181.457031 C 126.417969 164.140625 140.578125 149.972656 157.886719 149.972656 C 175.191406 149.972656 189.351562 164.140625 189.351562 181.457031 C 189.351562 198.773438 175.191406 212.941406 157.886719 212.941406 Z M 157.886719 156.269531 C 144.039062 156.269531 132.710938 167.605469 132.710938 181.457031 C 132.710938 195.3125 144.039062 206.644531 157.886719 206.644531 C 171.730469 206.644531 183.058594 195.3125 183.058594 181.457031 C 183.058594 167.605469 171.730469 156.269531 157.886719 156.269531 Z M 157.886719 156.269531 " fill-opacity="1" fill-rule="nonzero"/></svg>