<svg xmlns="http://www.w3.org/2000/svg" xmlns:xlink="http://www.w3.org/1999/xlink" width="500" zoomAndPan="magnify" viewBox="0 0 375 374.999991" height="500" preserveAspectRatio="xMidYMid meet" version="1.0"><defs><g/><clipPath id="id1"><path d="M 136.148438 103.238281 L 238.84375 103.238281 L 238.84375 206.738281 L 136.148438 206.738281 Z M 136.148438 103.238281 " clip-rule="nonzero"/></clipPath><clipPath id="id2"><path d="M 191.238281 103.402344 C 164.292969 101.261719 140.570312 120.226562 136.1875 146.425781 C 147.46875 124.289062 172.867188 115.847656 172.867188 115.847656 C 172.453125 116.011719 172.203125 116.121094 170.703125 117.03125 C 159.445312 124.082031 148.339844 133.878906 141.128906 144.464844 C 136.558594 151.175781 135.019531 159.523438 136.949219 167.410156 C 136.960938 167.453125 136.96875 167.492188 136.980469 167.535156 C 140.976562 150.433594 157.738281 135.140625 174.15625 122.085938 L 170.601562 120.074219 L 187.445312 116.960938 L 179.53125 132.191406 L 178.59375 127.914062 C 166.132812 138.644531 153.222656 150.964844 146.527344 163.359375 C 145.753906 164.789062 145 166.3125 144.3125 167.902344 C 141.453125 174.476562 142.507812 182.121094 147.015625 187.691406 C 147.039062 187.71875 147.0625 187.746094 147.085938 187.773438 C 149.199219 167.085938 175.800781 143.695312 189.320312 131.851562 L 183.527344 129.019531 L 209.121094 122.65625 L 198.386719 146.800781 L 196.613281 140.550781 C 179.585938 156.699219 165.246094 171.085938 158.484375 183.164062 C 154.820312 189.710938 157.308594 198.023438 164.003906 201.386719 C 164.039062 201.402344 164.074219 201.421875 164.109375 201.4375 C 164.054688 201.007812 164.019531 200.566406 164.003906 200.113281 C 163.851562 196.125 163.445312 185.527344 193.617188 158.007812 C 201.71875 150.617188 207.082031 145.726562 210.679688 142.429688 L 204.523438 138.792969 L 233.035156 134.058594 L 219.226562 159.511719 L 217.878906 152.792969 C 216.945312 153.574219 215.847656 154.488281 214.523438 155.582031 C 201.007812 166.515625 182.496094 181.488281 175.222656 195.316406 C 175.203125 195.351562 175.183594 195.386719 175.167969 195.425781 C 172.714844 200.144531 175.746094 205.863281 181.015625 206.492188 C 181.746094 206.582031 182.480469 206.652344 183.21875 206.707031 C 183.367188 206.71875 183.515625 206.730469 183.664062 206.738281 C 181.238281 204.652344 180.976562 200.847656 184.28125 195.316406 C 190.125 185.546875 203.59375 174.695312 213.214844 167.382812 C 199.546875 181.847656 192.019531 189.816406 188.574219 197.300781 C 188.546875 197.355469 188.519531 197.414062 188.496094 197.46875 C 186.453125 201.992188 190.210938 207.011719 195.105469 206.253906 C 218.292969 202.652344 236.820312 183.457031 238.679688 158.992188 C 240.851562 130.484375 219.667969 105.660156 191.238281 103.402344 Z M 191.238281 103.402344 " clip-rule="nonzero"/></clipPath><clipPath id="id3"><path d="M 191.238281 103.402344 C 164.292969 101.261719 140.570312 120.226562 136.1875 146.425781 C 147.46875 124.289062 172.867188 115.847656 172.867188 115.847656 C 172.453125 116.011719 172.203125 116.121094 170.703125 117.03125 C 159.445312 124.082031 148.339844 133.878906 141.128906 144.464844 C 136.558594 151.175781 135.019531 159.523438 136.949219 167.410156 C 136.960938 167.453125 136.96875 167.492188 136.980469 167.535156 C 140.976562 150.433594 157.738281 135.140625 174.15625 122.085938 L 170.601562 120.074219 L 187.445312 116.960938 L 179.53125 132.191406 L 178.59375 127.914062 C 166.132812 138.644531 153.222656 150.964844 146.527344 163.359375 C 145.753906 164.789062 145 166.3125 144.3125 167.902344 C 141.453125 174.476562 142.507812 182.121094 147.015625 187.691406 C 147.039062 187.71875 147.0625 187.746094 147.085938 187.773438 C 149.199219 167.085938 175.800781 143.695312 189.320312 131.851562 L 183.527344 129.019531 L 209.121094 122.65625 L 198.386719 146.800781 L 196.613281 140.550781 C 179.585938 156.699219 165.246094 171.085938 158.484375 183.164062 C 154.820312 189.710938 157.308594 198.023438 164.003906 201.386719 C 164.039062 201.402344 164.074219 201.421875 164.109375 201.4375 C 164.054688 201.007812 164.019531 200.566406 164.003906 200.113281 C 163.851562 196.125 163.445312 185.527344 193.617188 158.007812 C 201.71875 150.617188 207.082031 145.726562 210.679688 142.429688 L 204.523438 138.792969 L 233.035156 134.058594 L 219.226562 159.511719 L 217.878906 152.792969 C 216.945312 153.574219 215.847656 154.488281 214.523438 155.582031 C 201.007812 166.515625 182.496094 181.488281 175.222656 195.316406 C 175.203125 195.351562 175.183594 195.386719 175.167969 195.425781 C 172.714844 200.144531 175.746094 205.863281 181.015625 206.492188 C 181.746094 206.582031 182.480469 206.652344 183.21875 206.707031 C 183.367188 206.71875 183.515625 206.730469 183.664062 206.738281 C 181.238281 204.652344 180.976562 200.847656 184.28125 195.316406 C 190.125 185.546875 203.59375 174.695312 213.214844 167.382812 C 199.546875 181.847656 192.019531 189.816406 188.574219 197.300781 C 188.546875 197.355469 188.519531 197.414062 188.496094 197.46875 C 186.453125 201.992188 190.210938 207.011719 195.105469 206.253906 C 218.292969 202.652344 236.820312 183.457031 238.679688 158.992188 C 240.851562 130.484375 219.667969 105.660156 191.238281 103.402344 " clip-rule="nonzero"/></clipPath><radialGradient gradientTransform="matrix(0.000000000000000061, 1.001248, -0.998752, 0.000000000000000061, 190.87376, 102.050138)" gradientUnits="userSpaceOnUse" r="107.898751" cx="0" id="id4" cy="0" fx="0" fy="0"><stop stop-opacity="1" stop-color="rgb(31.604004%, 67.652893%, 89.7995%)" offset="0"/><stop stop-opacity="1" stop-color="rgb(31.404114%, 67.501831%, 89.608765%)" offset="0.00390625"/><stop stop-opacity="1" stop-color="rgb(31.399536%, 67.312622%, 89.408875%)" offset="0.0078125"/><stop stop-opacity="1" stop-color="rgb(31.217957%, 67.112732%, 89.399719%)" offset="0.0117188"/><stop stop-opacity="1" stop-color="rgb(31.018066%, 66.921997%, 89.222717%)" offset="0.015625"/><stop stop-opacity="1" stop-color="rgb(30.999756%, 66.522217%, 88.999939%)" offset="0.0195312"/><stop stop-opacity="1" stop-color="rgb(30.999756%, 66.281128%, 88.777161%)" offset="0.0234375"/><stop stop-opacity="1" stop-color="rgb(30.999756%, 66.069031%, 88.586426%)" offset="0.0273438"/><stop stop-opacity="1" stop-color="rgb(30.990601%, 65.686035%, 88.386536%)" offset="0.03125"/><stop stop-opacity="1" stop-color="rgb(30.79071%, 65.4953%, 88.198853%)" offset="0.0351562"/><stop stop-opacity="1" stop-color="rgb(30.599976%, 65.296936%, 88.198853%)" offset="0.0390625"/><stop stop-opacity="1" stop-color="rgb(30.599976%, 65.100098%, 88.005066%)" offset="0.0429688"/><stop stop-opacity="1" stop-color="rgb(30.599976%, 64.909363%, 87.805176%)" offset="0.046875"/><stop stop-opacity="1" stop-color="rgb(30.599976%, 64.709473%, 87.799072%)" offset="0.0507812"/><stop stop-opacity="1" stop-color="rgb(30.599976%, 64.518738%, 87.663269%)" offset="0.0546875"/><stop stop-opacity="1" stop-color="rgb(30.4245%, 64.318848%, 87.513733%)" offset="0.0585938"/><stop stop-opacity="1" stop-color="rgb(30.223083%, 64.099121%, 87.478638%)" offset="0.0625"/><stop stop-opacity="1" stop-color="rgb(30.183411%, 63.883972%, 87.278748%)" offset="0.0664062"/><stop stop-opacity="1" stop-color="rgb(29.983521%, 63.673401%, 87.098694%)" offset="0.0703125"/><stop stop-opacity="1" stop-color="rgb(29.798889%, 63.288879%, 87.09259%)" offset="0.0742188"/><stop stop-opacity="1" stop-color="rgb(29.798889%, 63.098145%, 86.8927%)" offset="0.078125"/><stop stop-opacity="1" stop-color="rgb(29.798889%, 62.901306%, 86.698914%)" offset="0.0820312"/><stop stop-opacity="1" stop-color="rgb(29.798889%, 62.557983%, 86.698914%)" offset="0.0859375"/><stop stop-opacity="1" stop-color="rgb(29.611206%, 62.405396%, 86.51123%)" offset="0.0898438"/><stop stop-opacity="1" stop-color="rgb(29.411316%, 62.216187%, 86.31134%)" offset="0.09375"/><stop stop-opacity="1" stop-color="rgb(29.399109%, 62.016296%, 86.299133%)" offset="0.0976562"/><stop stop-opacity="1" stop-color="rgb(29.399109%, 61.799622%, 86.099243%)" offset="0.101562"/><stop stop-opacity="1" stop-color="rgb(29.399109%, 61.579895%, 85.899353%)" offset="0.105469"/><stop stop-opacity="1" stop-color="rgb(29.399109%, 61.380005%, 85.884094%)" offset="0.109375"/><stop stop-opacity="1" stop-color="rgb(29.389954%, 61.18927%, 85.684204%)" offset="0.113281"/><stop stop-opacity="1" stop-color="rgb(29.190063%, 60.98938%, 85.494995%)" offset="0.117188"/><stop stop-opacity="1" stop-color="rgb(28.999329%, 60.798645%, 85.295105%)" offset="0.121094"/><stop stop-opacity="1" stop-color="rgb(28.999329%, 60.603333%, 85.099792%)" offset="0.125"/><stop stop-opacity="1" stop-color="rgb(28.999329%, 60.403442%, 85.099792%)" offset="0.128906"/><stop stop-opacity="1" stop-color="rgb(28.999329%, 60.212708%, 84.913635%)" offset="0.132812"/><stop stop-opacity="1" stop-color="rgb(28.999329%, 60.012817%, 84.712219%)" offset="0.136719"/><stop stop-opacity="1" stop-color="rgb(28.822327%, 59.822083%, 84.698486%)" offset="0.140625"/><stop stop-opacity="1" stop-color="rgb(28.622437%, 59.422302%, 84.498596%)" offset="0.144531"/><stop stop-opacity="1" stop-color="rgb(28.581238%, 59.181213%, 84.281921%)" offset="0.148438"/><stop stop-opacity="1" stop-color="rgb(28.381348%, 58.969116%, 84.082031%)" offset="0.152344"/><stop stop-opacity="1" stop-color="rgb(28.199768%, 58.586121%, 83.898926%)" offset="0.15625"/><stop stop-opacity="1" stop-color="rgb(28.199768%, 58.395386%, 83.898926%)" offset="0.160156"/><stop stop-opacity="1" stop-color="rgb(28.199768%, 58.197021%, 83.898926%)" offset="0.164062"/><stop stop-opacity="1" stop-color="rgb(28.199768%, 58.000183%, 83.705139%)" offset="0.167969"/><stop stop-opacity="1" stop-color="rgb(28.199768%, 57.809448%, 83.505249%)" offset="0.171875"/><stop stop-opacity="1" stop-color="rgb(28.015137%, 57.609558%, 83.499146%)" offset="0.175781"/><stop stop-opacity="1" stop-color="rgb(27.815247%, 57.4646%, 83.319092%)" offset="0.179688"/><stop stop-opacity="1" stop-color="rgb(27.799988%, 57.315063%, 83.119202%)" offset="0.183594"/><stop stop-opacity="1" stop-color="rgb(27.799988%, 57.098389%, 83.078003%)" offset="0.1875"/><stop stop-opacity="1" stop-color="rgb(27.799988%, 56.898499%, 82.878113%)" offset="0.191406"/><stop stop-opacity="1" stop-color="rgb(27.799988%, 56.887817%, 82.69043%)" offset="0.195312"/><stop stop-opacity="1" stop-color="rgb(27.799988%, 56.681824%, 82.540894%)" offset="0.199219"/><stop stop-opacity="1" stop-color="rgb(27.798462%, 56.292725%, 82.398987%)" offset="0.203125"/><stop stop-opacity="1" stop-color="rgb(27.650452%, 56.098938%, 82.398987%)" offset="0.207031"/><stop stop-opacity="1" stop-color="rgb(27.500916%, 55.906677%, 82.206726%)" offset="0.210938"/><stop stop-opacity="1" stop-color="rgb(27.49939%, 55.706787%, 82.006836%)" offset="0.214844"/><stop stop-opacity="1" stop-color="rgb(27.49939%, 55.516052%, 81.816101%)" offset="0.21875"/><stop stop-opacity="1" stop-color="rgb(27.49939%, 55.137634%, 81.616211%)" offset="0.222656"/><stop stop-opacity="1" stop-color="rgb(27.2995%, 54.896545%, 81.599426%)" offset="0.226562"/><stop stop-opacity="1" stop-color="rgb(27.099609%, 54.675293%, 81.57959%)" offset="0.230469"/><stop stop-opacity="1" stop-color="rgb(27.084351%, 54.484558%, 81.3797%)" offset="0.234375"/><stop stop-opacity="1" stop-color="rgb(26.88446%, 54.284668%, 81.199646%)" offset="0.238281"/><stop stop-opacity="1" stop-color="rgb(26.699829%, 54.093933%, 81.195068%)" offset="0.242188"/><stop stop-opacity="1" stop-color="rgb(26.699829%, 53.894043%, 80.995178%)" offset="0.246094"/><stop stop-opacity="1" stop-color="rgb(26.699829%, 53.69873%, 80.799866%)" offset="0.25"/><stop stop-opacity="1" stop-color="rgb(26.699829%, 53.507996%, 80.799866%)" offset="0.253906"/><stop stop-opacity="1" stop-color="rgb(26.699829%, 53.308105%, 80.618286%)" offset="0.257812"/><stop stop-opacity="1" stop-color="rgb(26.699829%, 53.121948%, 80.41687%)" offset="0.265625"/><stop stop-opacity="1" stop-color="rgb(26.498413%, 52.722168%, 80.198669%)" offset="0.269531"/><stop stop-opacity="1" stop-color="rgb(26.298523%, 52.485657%, 79.981995%)" offset="0.273438"/><stop stop-opacity="1" stop-color="rgb(26.298523%, 52.328491%, 79.782104%)" offset="0.277344"/><stop stop-opacity="1" stop-color="rgb(26.295471%, 51.991272%, 79.595947%)" offset="0.285156"/><stop stop-opacity="1" stop-color="rgb(26.097107%, 51.799011%, 79.397583%)" offset="0.289062"/><stop stop-opacity="1" stop-color="rgb(25.900269%, 51.605225%, 79.200745%)" offset="0.292969"/><stop stop-opacity="1" stop-color="rgb(25.898743%, 51.220703%, 79.014587%)" offset="0.296875"/><stop stop-opacity="1" stop-color="rgb(25.718689%, 51.014709%, 78.814697%)" offset="0.304688"/><stop stop-opacity="1" stop-color="rgb(25.518799%, 50.823975%, 78.799438%)" offset="0.308594"/><stop stop-opacity="1" stop-color="rgb(25.498962%, 50.602722%, 78.778076%)" offset="0.3125"/><stop stop-opacity="1" stop-color="rgb(25.498962%, 50.367737%, 78.578186%)" offset="0.316406"/><stop stop-opacity="1" stop-color="rgb(25.498962%, 49.987793%, 78.393555%)" offset="0.324219"/><stop stop-opacity="1" stop-color="rgb(25.498962%, 49.797058%, 78.193665%)" offset="0.328125"/><stop stop-opacity="1" stop-color="rgb(25.498962%, 49.60022%, 77.999878%)" offset="0.332031"/><stop stop-opacity="1" stop-color="rgb(25.306702%, 49.401855%, 77.999878%)" offset="0.335938"/><stop stop-opacity="1" stop-color="rgb(25.106812%, 49.211121%, 77.999878%)" offset="0.339844"/><stop stop-opacity="1" stop-color="rgb(25.099182%, 49.01123%, 77.816772%)" offset="0.34375"/><stop stop-opacity="1" stop-color="rgb(25.099182%, 48.820496%, 77.615356%)" offset="0.347656"/><stop stop-opacity="1" stop-color="rgb(25.099182%, 48.597717%, 77.449036%)" offset="0.351562"/><stop stop-opacity="1" stop-color="rgb(25.099182%, 48.374939%, 77.279663%)" offset="0.355469"/><stop stop-opacity="1" stop-color="rgb(25.099182%, 48.184204%, 77.079773%)" offset="0.359375"/><stop stop-opacity="1" stop-color="rgb(25.090027%, 47.984314%, 76.899719%)" offset="0.363281"/><stop stop-opacity="1" stop-color="rgb(24.890137%, 47.795105%, 76.895142%)" offset="0.367188"/><stop stop-opacity="1" stop-color="rgb(24.699402%, 47.645569%, 76.695251%)" offset="0.371094"/><stop stop-opacity="1" stop-color="rgb(24.508667%, 47.30835%, 76.499939%)" offset="0.378906"/><stop stop-opacity="1" stop-color="rgb(24.308777%, 46.92688%, 76.318359%)" offset="0.382812"/><stop stop-opacity="1" stop-color="rgb(24.299622%, 46.717834%, 76.116943%)" offset="0.390625"/><stop stop-opacity="1" stop-color="rgb(24.299622%, 46.499634%, 76.077271%)" offset="0.394531"/><stop stop-opacity="1" stop-color="rgb(24.299622%, 46.286011%, 75.87738%)" offset="0.398438"/><stop stop-opacity="1" stop-color="rgb(24.299622%, 46.086121%, 75.691223%)" offset="0.40625"/><stop stop-opacity="1" stop-color="rgb(24.29657%, 45.895386%, 75.491333%)" offset="0.410156"/><stop stop-opacity="1" stop-color="rgb(24.098206%, 45.697021%, 75.299072%)" offset="0.414062"/><stop stop-opacity="1" stop-color="rgb(23.901367%, 45.306396%, 75.299072%)" offset="0.417969"/><stop stop-opacity="1" stop-color="rgb(23.899841%, 45.10498%, 75.109863%)" offset="0.421875"/><stop stop-opacity="1" stop-color="rgb(23.899841%, 44.914246%, 74.909973%)" offset="0.425781"/><stop stop-opacity="1" stop-color="rgb(23.899841%, 44.540405%, 74.723816%)" offset="0.429688"/><stop stop-opacity="1" stop-color="rgb(23.899841%, 44.32373%, 74.504089%)" offset="0.4375"/><stop stop-opacity="1" stop-color="rgb(23.883057%, 44.282532%, 74.278259%)" offset="0.441406"/><stop stop-opacity="1" stop-color="rgb(23.683167%, 44.076538%, 74.099731%)" offset="0.445312"/><stop stop-opacity="1" stop-color="rgb(23.497009%, 43.693542%, 74.098206%)" offset="0.453125"/><stop stop-opacity="1" stop-color="rgb(23.300171%, 43.499756%, 73.901367%)" offset="0.457031"/><stop stop-opacity="1" stop-color="rgb(23.101807%, 43.307495%, 73.703003%)" offset="0.460938"/><stop stop-opacity="1" stop-color="rgb(23.098755%, 43.107605%, 73.516846%)" offset="0.464844"/><stop stop-opacity="1" stop-color="rgb(23.098755%, 42.921448%, 73.31543%)" offset="0.472656"/><stop stop-opacity="1" stop-color="rgb(23.098755%, 42.570496%, 73.275757%)" offset="0.476562"/><stop stop-opacity="1" stop-color="rgb(23.098755%, 42.379761%, 73.075867%)" offset="0.480469"/><stop stop-opacity="1" stop-color="rgb(23.098755%, 42.170715%, 72.889709%)" offset="0.484375"/><stop stop-opacity="1" stop-color="rgb(23.094177%, 41.789246%, 72.689819%)" offset="0.492188"/><stop stop-opacity="1" stop-color="rgb(22.894287%, 41.598511%, 72.499084%)" offset="0.496094"/><stop stop-opacity="1" stop-color="rgb(22.698975%, 41.407776%, 72.499084%)" offset="0.503906"/><stop stop-opacity="1" stop-color="rgb(22.698975%, 41.207886%, 72.358704%)" offset="0.507812"/><stop stop-opacity="1" stop-color="rgb(22.698975%, 41.017151%, 72.209167%)" offset="0.511719"/><stop stop-opacity="1" stop-color="rgb(22.566223%, 40.817261%, 72.021484%)" offset="0.515625"/><stop stop-opacity="1" stop-color="rgb(22.416687%, 40.59906%, 71.821594%)" offset="0.519531"/><stop stop-opacity="1" stop-color="rgb(22.399902%, 40.39917%, 71.781921%)" offset="0.523438"/><stop stop-opacity="1" stop-color="rgb(22.399902%, 40.386963%, 71.582031%)" offset="0.527344"/><stop stop-opacity="1" stop-color="rgb(22.399902%, 40.187073%, 71.398926%)" offset="0.53125"/><stop stop-opacity="1" stop-color="rgb(22.399902%, 39.996338%, 71.398926%)" offset="0.535156"/><stop stop-opacity="1" stop-color="rgb(22.399902%, 39.797974%, 71.398926%)" offset="0.539062"/><stop stop-opacity="1" stop-color="rgb(22.206116%, 39.601135%, 71.205139%)" offset="0.542969"/><stop stop-opacity="1" stop-color="rgb(22.0047%, 39.4104%, 71.005249%)" offset="0.546875"/><stop stop-opacity="1" stop-color="rgb(21.998596%, 39.21051%, 70.814514%)" offset="0.550781"/><stop stop-opacity="1" stop-color="rgb(21.998596%, 39.019775%, 70.614624%)" offset="0.554688"/><stop stop-opacity="1" stop-color="rgb(21.998596%, 38.818359%, 70.599365%)" offset="0.558594"/><stop stop-opacity="1" stop-color="rgb(21.998596%, 38.598633%, 70.578003%)" offset="0.5625"/><stop stop-opacity="1" stop-color="rgb(21.998596%, 38.383484%, 70.378113%)" offset="0.566406"/><stop stop-opacity="1" stop-color="rgb(21.99707%, 38.182068%, 70.198059%)" offset="0.570312"/><stop stop-opacity="1" stop-color="rgb(21.800232%, 37.800598%, 70.001221%)" offset="0.582031"/><stop stop-opacity="1" stop-color="rgb(21.601868%, 37.451172%, 69.619751%)" offset="0.585938"/><stop stop-opacity="1" stop-color="rgb(21.420288%, 37.298584%, 69.415283%)" offset="0.597656"/><stop stop-opacity="1" stop-color="rgb(21.220398%, 37.098694%, 69.198608%)" offset="0.601562"/><stop stop-opacity="1" stop-color="rgb(21.199036%, 36.880493%, 68.998718%)" offset="0.605469"/><stop stop-opacity="1" stop-color="rgb(21.199036%, 36.680603%, 68.984985%)" offset="0.609375"/><stop stop-opacity="1" stop-color="rgb(21.199036%, 36.489868%, 68.785095%)" offset="0.613281"/><stop stop-opacity="1" stop-color="rgb(21.199036%, 36.289978%, 68.598938%)" offset="0.617188"/><stop stop-opacity="1" stop-color="rgb(21.199036%, 36.099243%, 68.598938%)" offset="0.621094"/><stop stop-opacity="1" stop-color="rgb(21.199036%, 35.903931%, 68.403625%)" offset="0.625"/><stop stop-opacity="1" stop-color="rgb(21.199036%, 35.704041%, 68.203735%)" offset="0.628906"/><stop stop-opacity="1" stop-color="rgb(21.199036%, 35.517883%, 68.199158%)" offset="0.636719"/><stop stop-opacity="1" stop-color="rgb(21.022034%, 35.317993%, 68.022156%)" offset="0.640625"/><stop stop-opacity="1" stop-color="rgb(20.822144%, 35.099792%, 67.822266%)" offset="0.644531"/><stop stop-opacity="1" stop-color="rgb(20.799255%, 34.886169%, 67.790222%)" offset="0.648438"/><stop stop-opacity="1" stop-color="rgb(20.799255%, 34.683228%, 67.63916%)" offset="0.65625"/><stop stop-opacity="1" stop-color="rgb(20.799255%, 34.29718%, 67.498779%)" offset="0.664062"/><stop stop-opacity="1" stop-color="rgb(20.605469%, 34.100342%, 67.304993%)" offset="0.667969"/><stop stop-opacity="1" stop-color="rgb(20.405579%, 33.914185%, 67.105103%)" offset="0.671875"/><stop stop-opacity="1" stop-color="rgb(20.399475%, 33.714294%, 66.918945%)" offset="0.679688"/><stop stop-opacity="1" stop-color="rgb(20.399475%, 33.52356%, 66.719055%)" offset="0.683594"/><stop stop-opacity="1" stop-color="rgb(20.399475%, 33.303833%, 66.499329%)" offset="0.6875"/><stop stop-opacity="1" stop-color="rgb(20.399475%, 33.067322%, 66.299438%)" offset="0.691406"/><stop stop-opacity="1" stop-color="rgb(20.393372%, 32.688904%, 66.293335%)" offset="0.699219"/><stop stop-opacity="1" stop-color="rgb(20.193481%, 32.348633%, 66.093445%)" offset="0.703125"/><stop stop-opacity="1" stop-color="rgb(19.999695%, 32.199097%, 65.716553%)" offset="0.71875"/><stop stop-opacity="1" stop-color="rgb(19.999695%, 32.020569%, 65.516663%)" offset="0.722656"/><stop stop-opacity="1" stop-color="rgb(19.999695%, 31.797791%, 65.475464%)" offset="0.726562"/><stop stop-opacity="1" stop-color="rgb(19.979858%, 31.575012%, 65.275574%)" offset="0.730469"/><stop stop-opacity="1" stop-color="rgb(19.779968%, 31.390381%, 65.089417%)" offset="0.734375"/><stop stop-opacity="1" stop-color="rgb(19.599915%, 31.190491%, 64.889526%)" offset="0.742188"/><stop stop-opacity="1" stop-color="rgb(19.599915%, 30.804443%, 64.503479%)" offset="0.75"/><stop stop-opacity="1" stop-color="rgb(19.599915%, 30.604553%, 64.303589%)" offset="0.753906"/><stop stop-opacity="1" stop-color="rgb(19.599915%, 30.413818%, 64.299011%)" offset="0.757812"/><stop stop-opacity="1" stop-color="rgb(19.599915%, 30.212402%, 64.299011%)" offset="0.761719"/><stop stop-opacity="1" stop-color="rgb(19.599915%, 30.198669%, 64.122009%)" offset="0.765625"/><stop stop-opacity="1" stop-color="rgb(19.398499%, 29.998779%, 63.922119%)" offset="0.769531"/><stop stop-opacity="1" stop-color="rgb(19.198608%, 29.798889%, 63.899231%)" offset="0.773438"/><stop stop-opacity="1" stop-color="rgb(19.198608%, 29.786682%, 63.887024%)" offset="0.777344"/><stop stop-opacity="1" stop-color="rgb(19.198608%, 29.586792%, 63.687134%)" offset="0.78125"/><stop stop-opacity="1" stop-color="rgb(19.198608%, 29.396057%, 63.499451%)" offset="0.785156"/><stop stop-opacity="1" stop-color="rgb(19.198608%, 29.197693%, 63.499451%)" offset="0.789062"/><stop stop-opacity="1" stop-color="rgb(19.198608%, 29.000854%, 63.305664%)" offset="0.792969"/><stop stop-opacity="1" stop-color="rgb(19.198608%, 28.999329%, 63.105774%)" offset="0.796875"/><stop stop-opacity="1" stop-color="rgb(19.198608%, 28.814697%, 63.09967%)" offset="0.800781"/><stop stop-opacity="1" stop-color="rgb(19.198608%, 28.614807%, 63.09967%)" offset="0.804688"/><stop stop-opacity="1" stop-color="rgb(19.198608%, 28.599548%, 62.924194%)" offset="0.808594"/><stop stop-opacity="1" stop-color="rgb(18.998718%, 28.399658%, 62.709045%)" offset="0.8125"/><stop stop-opacity="1" stop-color="rgb(18.798828%, 28.182983%, 62.533569%)" offset="0.816406"/><stop stop-opacity="1" stop-color="rgb(18.798828%, 27.978516%, 62.393188%)" offset="0.820312"/><stop stop-opacity="1" stop-color="rgb(18.798828%, 27.644348%, 62.193298%)" offset="0.828125"/><stop stop-opacity="1" stop-color="rgb(18.798828%, 27.311707%, 61.999512%)" offset="0.835938"/><stop stop-opacity="1" stop-color="rgb(18.615723%, 27.111816%, 61.816406%)" offset="0.84375"/><stop stop-opacity="1" stop-color="rgb(18.415833%, 27.099609%, 61.616516%)" offset="0.847656"/><stop stop-opacity="1" stop-color="rgb(18.399048%, 26.899719%, 61.599731%)" offset="0.851562"/><stop stop-opacity="1" stop-color="rgb(18.399048%, 26.699829%, 61.579895%)" offset="0.855469"/><stop stop-opacity="1" stop-color="rgb(18.399048%, 26.68457%, 61.380005%)" offset="0.859375"/><stop stop-opacity="1" stop-color="rgb(18.399048%, 26.48468%, 61.193848%)" offset="0.863281"/><stop stop-opacity="1" stop-color="rgb(18.399048%, 26.10321%, 60.993958%)" offset="0.871094"/><stop stop-opacity="1" stop-color="rgb(18.399048%, 25.90332%, 60.798645%)" offset="0.878906"/><stop stop-opacity="1" stop-color="rgb(18.399048%, 25.712585%, 60.612488%)" offset="0.882812"/><stop stop-opacity="1" stop-color="rgb(18.399048%, 25.512695%, 60.412598%)" offset="0.886719"/><stop stop-opacity="1" stop-color="rgb(18.399048%, 25.498962%, 60.398865%)" offset="0.890625"/><stop stop-opacity="1" stop-color="rgb(18.199158%, 25.299072%, 60.198975%)" offset="0.894531"/><stop stop-opacity="1" stop-color="rgb(17.999268%, 25.099182%, 59.999084%)" offset="0.898438"/><stop stop-opacity="1" stop-color="rgb(17.999268%, 25.086975%, 59.986877%)" offset="0.902344"/><stop stop-opacity="1" stop-color="rgb(17.999268%, 24.887085%, 59.786987%)" offset="0.90625"/><stop stop-opacity="1" stop-color="rgb(17.999268%, 24.505615%, 59.599304%)" offset="0.917969"/><stop stop-opacity="1" stop-color="rgb(17.999268%, 24.305725%, 59.410095%)" offset="0.921875"/><stop stop-opacity="1" stop-color="rgb(17.999268%, 24.119568%, 59.210205%)" offset="0.925781"/><stop stop-opacity="1" stop-color="rgb(17.823792%, 23.919678%, 59.199524%)" offset="0.933594"/><stop stop-opacity="1" stop-color="rgb(17.623901%, 23.698425%, 58.999634%)" offset="0.9375"/><stop stop-opacity="1" stop-color="rgb(17.599487%, 23.483276%, 58.799744%)" offset="0.941406"/><stop stop-opacity="1" stop-color="rgb(17.599487%, 23.283386%, 58.787537%)" offset="0.945312"/><stop stop-opacity="1" stop-color="rgb(17.599487%, 23.098755%, 58.587646%)" offset="0.949219"/><stop stop-opacity="1" stop-color="rgb(17.599487%, 22.906494%, 58.399963%)" offset="0.960938"/><stop stop-opacity="1" stop-color="rgb(17.459106%, 22.706604%, 58.21228%)" offset="0.964844"/><stop stop-opacity="1" stop-color="rgb(17.308044%, 22.564697%, 58.010864%)" offset="0.96875"/><stop stop-opacity="1" stop-color="rgb(17.298889%, 22.415161%, 57.798767%)" offset="0.976562"/><stop stop-opacity="1" stop-color="rgb(17.298889%, 22.380066%, 57.598877%)" offset="0.980469"/><stop stop-opacity="1" stop-color="rgb(17.298889%, 22.180176%, 57.449341%)" offset="0.984375"/><stop stop-opacity="1" stop-color="rgb(17.298889%, 21.998596%, 57.299805%)" offset="1"/></radialGradient></defs><g fill="#ffffff" fill-opacity="1"><g transform="translate(92.498, 250.057352)"><g><path d="M 11.898438 0.40625 C 18.605469 0.40625 22.929688 -4.558594 22.464844 -11.523438 L 11 -11.523438 L 11 -7.953125 L 17.589844 -7.953125 C 17.007812 -5.484375 14.917969 -3.832031 11.957031 -3.832031 C 8.242188 -3.832031 5.863281 -6.5 5.863281 -10.160156 C 5.863281 -13.875 8.332031 -16.484375 11.898438 -16.484375 C 14.164062 -16.484375 16.050781 -15.441406 17.039062 -13.671875 L 22 -13.671875 C 20.78125 -17.9375 16.746094 -20.722656 11.8125 -20.722656 C 5.628906 -20.722656 1.25 -16.339844 1.25 -10.160156 C 1.25 -3.949219 5.660156 0.40625 11.898438 0.40625 Z M 11.898438 0.40625 "/></g></g></g><g fill="#ffffff" fill-opacity="1"><g transform="translate(117.655105, 250.057352)"><g><path d="M 2.4375 0 L 15.933594 0 L 15.933594 -4.324219 L 7.054688 -4.324219 L 7.054688 -20.316406 L 2.4375 -20.316406 Z M 2.4375 0 "/></g></g></g><g fill="#ffffff" fill-opacity="1"><g transform="translate(135.848469, 250.057352)"><g><path d="M 12.074219 0.40625 C 18.429688 0.40625 22.929688 -3.949219 22.929688 -10.160156 C 22.929688 -16.371094 18.429688 -20.722656 12.074219 -20.722656 C 5.71875 -20.722656 1.25 -16.371094 1.25 -10.160156 C 1.25 -3.949219 5.71875 0.40625 12.074219 0.40625 Z M 5.949219 -10.160156 C 5.949219 -13.816406 8.476562 -16.339844 12.074219 -16.339844 C 15.703125 -16.339844 18.199219 -13.816406 18.199219 -10.160156 C 18.199219 -6.5 15.703125 -3.976562 12.074219 -3.976562 C 8.476562 -3.976562 5.949219 -6.5 5.949219 -10.160156 Z M 5.949219 -10.160156 "/></g></g></g><g fill="#ffffff" fill-opacity="1"><g transform="translate(161.498837, 250.057352)"><g><path d="M 2.4375 0 L 11.988281 0 C 16.109375 0 18.894531 -2.265625 18.894531 -5.6875 C 18.894531 -7.867188 17.761719 -9.605469 15.847656 -10.449219 C 17.386719 -11.347656 18.285156 -12.945312 18.285156 -14.859375 C 18.285156 -18.199219 15.644531 -20.316406 11.523438 -20.316406 L 2.4375 -20.316406 Z M 6.996094 -3.65625 L 6.996094 -8.535156 L 11.289062 -8.535156 C 13.121094 -8.535156 14.164062 -7.632812 14.164062 -6.09375 C 14.164062 -4.558594 13.121094 -3.65625 11.289062 -3.65625 Z M 6.996094 -12.046875 L 6.996094 -16.660156 L 10.828125 -16.660156 C 12.597656 -16.660156 13.582031 -15.847656 13.582031 -14.367188 C 13.582031 -12.886719 12.597656 -12.046875 10.828125 -12.046875 Z M 6.996094 -12.046875 "/></g></g></g><g fill="#ffffff" fill-opacity="1"><g transform="translate(182.970968, 250.057352)"><g><path d="M 0.261719 0 L 5.195312 0 L 6.558594 -3.511719 L 14.628906 -3.511719 L 15.992188 0 L 20.925781 0 L 12.859375 -20.316406 L 8.332031 -20.316406 Z M 7.75 -7.140625 L 10.59375 -14.570312 L 13.46875 -7.140625 Z M 7.75 -7.140625 "/></g></g></g><g fill="#ffffff" fill-opacity="1"><g transform="translate(205.632728, 250.057352)"><g><path d="M 2.4375 0 L 15.933594 0 L 15.933594 -4.324219 L 7.054688 -4.324219 L 7.054688 -20.316406 L 2.4375 -20.316406 Z M 2.4375 0 "/></g></g></g><g fill="#ffffff" fill-opacity="1"><g transform="translate(223.826087, 250.057352)"><g/></g></g><g fill="#ffffff" fill-opacity="1"><g transform="translate(232.125124, 250.057352)"><g><path d="M 2.4375 0 L 11.988281 0 C 16.109375 0 18.894531 -2.265625 18.894531 -5.6875 C 18.894531 -7.867188 17.761719 -9.605469 15.847656 -10.449219 C 17.386719 -11.347656 18.285156 -12.945312 18.285156 -14.859375 C 18.285156 -18.199219 15.644531 -20.316406 11.523438 -20.316406 L 2.4375 -20.316406 Z M 6.996094 -3.65625 L 6.996094 -8.535156 L 11.289062 -8.535156 C 13.121094 -8.535156 14.164062 -7.632812 14.164062 -6.09375 C 14.164062 -4.558594 13.121094 -3.65625 11.289062 -3.65625 Z M 6.996094 -12.046875 L 6.996094 -16.660156 L 10.828125 -16.660156 C 12.597656 -16.660156 13.582031 -15.847656 13.582031 -14.367188 C 13.582031 -12.886719 12.597656 -12.046875 10.828125 -12.046875 Z M 6.996094 -12.046875 "/></g></g></g><g fill="#ffffff" fill-opacity="1"><g transform="translate(253.597249, 250.057352)"><g><path d="M 2.4375 0 L 7.054688 0 L 7.054688 -20.316406 L 2.4375 -20.316406 Z M 2.4375 0 "/></g></g></g><g fill="#ffffff" fill-opacity="1"><g transform="translate(264.565723, 250.057352)"><g><path d="M 1.21875 0 L 16.71875 0 L 16.71875 -4.179688 L 7.226562 -4.179688 L 16.484375 -16.980469 L 16.484375 -20.316406 L 1.539062 -20.316406 L 1.539062 -16.136719 L 10.507812 -16.136719 L 1.21875 -3.335938 Z M 1.21875 0 "/></g></g></g><g fill="#ffffff" fill-opacity="1"><g transform="translate(71.641061, 269.240109)"><g><path d="M 1.1875 0 L 2.210938 0 L 2.210938 -8.148438 L 1.1875 -8.148438 Z M 1.1875 0 "/></g></g></g><g fill="#ffffff" fill-opacity="1"><g transform="translate(78.159898, 269.240109)"><g><path d="M 1.1875 0 L 2.199219 0 L 2.199219 -6.378906 L 6.703125 0 L 7.660156 0 L 7.660156 -8.148438 L 6.65625 -8.148438 L 6.65625 -1.769531 L 2.152344 -8.148438 L 1.1875 -8.148438 Z M 1.1875 0 "/></g></g></g><g fill="#ffffff" fill-opacity="1"><g transform="translate(90.124693, 269.240109)"><g><path d="M 1.1875 0 L 2.199219 0 L 2.199219 -6.378906 L 6.703125 0 L 7.660156 0 L 7.660156 -8.148438 L 6.65625 -8.148438 L 6.65625 -1.769531 L 2.152344 -8.148438 L 1.1875 -8.148438 Z M 1.1875 0 "/></g></g></g><g fill="#ffffff" fill-opacity="1"><g transform="translate(102.089487, 269.240109)"><g><path d="M 4.890625 0.152344 C 7.367188 0.152344 9.113281 -1.59375 9.113281 -4.074219 C 9.113281 -6.554688 7.367188 -8.300781 4.890625 -8.300781 C 2.410156 -8.300781 0.675781 -6.554688 0.675781 -4.074219 C 0.675781 -1.59375 2.410156 0.152344 4.890625 0.152344 Z M 1.722656 -4.074219 C 1.722656 -5.972656 3.015625 -7.273438 4.890625 -7.273438 C 6.761719 -7.273438 8.054688 -5.972656 8.054688 -4.074219 C 8.054688 -2.175781 6.761719 -0.871094 4.890625 -0.871094 C 3.015625 -0.871094 1.722656 -2.175781 1.722656 -4.074219 Z M 1.722656 -4.074219 "/></g></g></g><g fill="#ffffff" fill-opacity="1"><g transform="translate(114.985224, 269.240109)"><g><path d="M 3.445312 0 L 4.398438 0 L 7.636719 -8.148438 L 6.554688 -8.148438 L 5.191406 -4.714844 L 3.921875 -1.476562 L 2.640625 -4.714844 L 1.292969 -8.148438 L 0.199219 -8.148438 Z M 3.445312 0 "/></g></g></g><g fill="#ffffff" fill-opacity="1"><g transform="translate(125.937631, 269.240109)"><g><path d="M 0.199219 0 L 1.292969 0 L 2.035156 -1.851562 L 6.007812 -1.851562 L 6.773438 0 L 7.855469 0 L 4.503906 -8.148438 L 3.550781 -8.148438 Z M 2.433594 -2.804688 L 4.027344 -6.714844 L 5.621094 -2.804688 Z M 2.433594 -2.804688 "/></g></g></g><g fill="#ffffff" fill-opacity="1"><g transform="translate(137.111138, 269.240109)"><g><path d="M 3.15625 0 L 4.179688 0 L 4.179688 -7.171875 L 6.925781 -7.171875 L 6.925781 -8.148438 L 0.394531 -8.148438 L 0.394531 -7.171875 L 3.15625 -7.171875 Z M 3.15625 0 "/></g></g></g><g fill="#ffffff" fill-opacity="1"><g transform="translate(147.563175, 269.240109)"><g><path d="M 1.1875 0 L 6.261719 0 L 6.261719 -0.953125 L 2.210938 -0.953125 L 2.210938 -3.679688 L 5.84375 -3.679688 L 5.84375 -4.621094 L 2.210938 -4.621094 L 2.210938 -7.195312 L 6.132812 -7.195312 L 6.132812 -8.148438 L 1.1875 -8.148438 Z M 1.1875 0 "/></g></g></g><g fill="#ffffff" fill-opacity="1"><g transform="translate(157.701015, 269.240109)"><g><path d="M 1.433594 1.582031 L 2.351562 1.582031 L 2.351562 -9.3125 L 1.433594 -9.3125 Z M 1.433594 1.582031 "/></g></g></g><g fill="#ffffff" fill-opacity="1"><g transform="translate(164.603862, 269.240109)"><g><path d="M 4.796875 0.152344 C 6.773438 0.152344 8.378906 -1.046875 8.871094 -2.863281 L 7.789062 -2.863281 C 7.367188 -1.640625 6.214844 -0.871094 4.832031 -0.871094 C 3.015625 -0.871094 1.722656 -2.1875 1.722656 -4.074219 C 1.722656 -5.960938 3.015625 -7.273438 4.832031 -7.273438 C 6.179688 -7.273438 7.285156 -6.554688 7.707031 -5.378906 L 8.800781 -5.378906 C 8.265625 -7.171875 6.714844 -8.300781 4.796875 -8.300781 C 2.398438 -8.300781 0.675781 -6.53125 0.675781 -4.074219 C 0.675781 -1.617188 2.398438 0.152344 4.796875 0.152344 Z M 4.796875 0.152344 "/></g></g></g><g fill="#ffffff" fill-opacity="1"><g transform="translate(177.22032, 269.240109)"><g><path d="M 4.890625 0.152344 C 7.367188 0.152344 9.113281 -1.59375 9.113281 -4.074219 C 9.113281 -6.554688 7.367188 -8.300781 4.890625 -8.300781 C 2.410156 -8.300781 0.675781 -6.554688 0.675781 -4.074219 C 0.675781 -1.59375 2.410156 0.152344 4.890625 0.152344 Z M 1.722656 -4.074219 C 1.722656 -5.972656 3.015625 -7.273438 4.890625 -7.273438 C 6.761719 -7.273438 8.054688 -5.972656 8.054688 -4.074219 C 8.054688 -2.175781 6.761719 -0.871094 4.890625 -0.871094 C 3.015625 -0.871094 1.722656 -2.175781 1.722656 -4.074219 Z M 1.722656 -4.074219 "/></g></g></g><g fill="#ffffff" fill-opacity="1"><g transform="translate(190.11606, 269.240109)"><g><path d="M 1.1875 0 L 2.199219 0 L 2.199219 -6.378906 L 6.703125 0 L 7.660156 0 L 7.660156 -8.148438 L 6.65625 -8.148438 L 6.65625 -1.769531 L 2.152344 -8.148438 L 1.1875 -8.148438 Z M 1.1875 0 "/></g></g></g><g fill="#ffffff" fill-opacity="1"><g transform="translate(202.080857, 269.240109)"><g><path d="M 1.1875 0 L 2.199219 0 L 2.199219 -6.378906 L 6.703125 0 L 7.660156 0 L 7.660156 -8.148438 L 6.65625 -8.148438 L 6.65625 -1.769531 L 2.152344 -8.148438 L 1.1875 -8.148438 Z M 1.1875 0 "/></g></g></g><g fill="#ffffff" fill-opacity="1"><g transform="translate(214.045654, 269.240109)"><g><path d="M 1.1875 0 L 6.261719 0 L 6.261719 -0.953125 L 2.210938 -0.953125 L 2.210938 -3.679688 L 5.84375 -3.679688 L 5.84375 -4.621094 L 2.210938 -4.621094 L 2.210938 -7.195312 L 6.132812 -7.195312 L 6.132812 -8.148438 L 1.1875 -8.148438 Z M 1.1875 0 "/></g></g></g><g fill="#ffffff" fill-opacity="1"><g transform="translate(224.183494, 269.240109)"><g><path d="M 4.796875 0.152344 C 6.773438 0.152344 8.378906 -1.046875 8.871094 -2.863281 L 7.789062 -2.863281 C 7.367188 -1.640625 6.214844 -0.871094 4.832031 -0.871094 C 3.015625 -0.871094 1.722656 -2.1875 1.722656 -4.074219 C 1.722656 -5.960938 3.015625 -7.273438 4.832031 -7.273438 C 6.179688 -7.273438 7.285156 -6.554688 7.707031 -5.378906 L 8.800781 -5.378906 C 8.265625 -7.171875 6.714844 -8.300781 4.796875 -8.300781 C 2.398438 -8.300781 0.675781 -6.53125 0.675781 -4.074219 C 0.675781 -1.617188 2.398438 0.152344 4.796875 0.152344 Z M 4.796875 0.152344 "/></g></g></g><g fill="#ffffff" fill-opacity="1"><g transform="translate(236.799952, 269.240109)"><g><path d="M 3.15625 0 L 4.179688 0 L 4.179688 -7.171875 L 6.925781 -7.171875 L 6.925781 -8.148438 L 0.394531 -8.148438 L 0.394531 -7.171875 L 3.15625 -7.171875 Z M 3.15625 0 "/></g></g></g><g fill="#ffffff" fill-opacity="1"><g transform="translate(247.251989, 269.240109)"><g><path d="M 1.433594 1.582031 L 2.351562 1.582031 L 2.351562 -9.3125 L 1.433594 -9.3125 Z M 1.433594 1.582031 "/></g></g></g><g fill="#ffffff" fill-opacity="1"><g transform="translate(254.154835, 269.240109)"><g><path d="M 4.820312 0.152344 C 7.320312 0.152344 9.007812 -1.746094 8.960938 -4.421875 L 4.539062 -4.421875 L 4.539062 -3.445312 L 7.855469 -3.445312 C 7.648438 -1.910156 6.484375 -0.871094 4.84375 -0.871094 C 3.015625 -0.871094 1.722656 -2.1875 1.722656 -4.074219 C 1.722656 -5.960938 3.003906 -7.273438 4.832031 -7.273438 C 6.085938 -7.273438 7.089844 -6.65625 7.601562 -5.609375 L 8.71875 -5.609375 C 8.195312 -7.21875 6.65625 -8.300781 4.796875 -8.300781 C 2.410156 -8.300781 0.675781 -6.519531 0.675781 -4.074219 C 0.675781 -1.617188 2.421875 0.152344 4.820312 0.152344 Z M 4.820312 0.152344 "/></g></g></g><g fill="#ffffff" fill-opacity="1"><g transform="translate(266.876018, 269.240109)"><g><path d="M 1.1875 0 L 2.210938 0 L 2.210938 -2.921875 L 4.003906 -2.921875 L 5.996094 0 L 7.226562 0 L 5.179688 -3.027344 C 6.367188 -3.316406 7.101562 -4.214844 7.101562 -5.527344 C 7.101562 -7.148438 5.984375 -8.148438 4.296875 -8.148438 L 1.1875 -8.148438 Z M 2.210938 -3.898438 L 2.210938 -7.171875 L 4.179688 -7.171875 C 5.367188 -7.171875 6.054688 -6.566406 6.054688 -5.527344 C 6.054688 -4.492188 5.367188 -3.898438 4.179688 -3.898438 Z M 2.210938 -3.898438 "/></g></g></g><g fill="#ffffff" fill-opacity="1"><g transform="translate(277.921511, 269.240109)"><g><path d="M 4.890625 0.152344 C 7.367188 0.152344 9.113281 -1.59375 9.113281 -4.074219 C 9.113281 -6.554688 7.367188 -8.300781 4.890625 -8.300781 C 2.410156 -8.300781 0.675781 -6.554688 0.675781 -4.074219 C 0.675781 -1.59375 2.410156 0.152344 4.890625 0.152344 Z M 1.722656 -4.074219 C 1.722656 -5.972656 3.015625 -7.273438 4.890625 -7.273438 C 6.761719 -7.273438 8.054688 -5.972656 8.054688 -4.074219 C 8.054688 -2.175781 6.761719 -0.871094 4.890625 -0.871094 C 3.015625 -0.871094 1.722656 -2.175781 1.722656 -4.074219 Z M 1.722656 -4.074219 "/></g></g></g><g fill="#ffffff" fill-opacity="1"><g transform="translate(290.817239, 269.240109)"><g><path d="M 2.863281 0 L 3.816406 0 L 6.261719 -6.601562 L 7.613281 -2.96875 L 8.71875 0 L 9.671875 0 L 12.328125 -8.148438 L 11.257812 -8.148438 L 9.160156 -1.628906 L 6.75 -8.148438 L 5.785156 -8.148438 L 3.375 -1.640625 L 2.421875 -4.632812 L 1.292969 -8.148438 L 0.222656 -8.148438 Z M 2.863281 0 "/></g></g></g><g clip-path="url(#id1)"><g clip-path="url(#id2)"><g clip-path="url(#id3)"><path fill="url(#id4)" d="M 238.84375 103.238281 L 136.148438 103.238281 L 136.148438 206.738281 L 238.84375 206.738281 Z M 238.84375 103.238281 " fill-rule="nonzero"/></g></g></g></svg>